<?xml version="1.0" standalone="no"?><!DOCTYPE svg PUBLIC "-//W3C//DTD SVG 1.1//EN" "http://www.w3.org/Graphics/SVG/1.1/DTD/svg11.dtd"><svg t="1531133797010" class="icon" style="" viewBox="0 0 1024 1024" version="1.1" xmlns="http://www.w3.org/2000/svg" p-id="3674" xmlns:xlink="http://www.w3.org/1999/xlink" ><defs><style type="text/css"></style></defs><path d="M717.142857 449.714286q0-181.714286-60-271.142857T468.571429 89.142857q-126.857143 0-186.285715 89.714286T222.857143 449.714286q0 180.571429 59.428571 269.428571T468.571429 808q42.285714 0 74.857142-9.714286-12.571429-24.571429-22.285714-41.714285t-25.142857-37.142858-30.571429-32.285714-36-20.571428T385.142857 658.285714q-26.285714 0-45.142857 9.142857l-28-55.428571q60-52 157.714286-52 75.428571 0 123.142857 30.857143t86 88.571428q38.285714-85.142857 38.285714-229.714285z m222.857143 361.142857h66.857143q1.714286 15.428571-1.142857 38.285714t-15.142857 54.285714-33.142858 57.428572-61.142857 44.571428T803.428571 1024q-40.571429 0-74.571428-10.857143t-60.285714-32-45.142858-44.571428-37.714285-54.857143q-55.428571 15.428571-117.142857 15.428571-85.714286 0-167.142858-33.142857t-144.571428-90.571429-101.714286-142.285714T16.571429 449.714286q0-97.142857 38.571428-182.571429T157.142857 124 302 33.142857 468.571429 0q69.142857 0 136.285714 20.571429t124 60.571428 100.571428 94 68.285715 125.142857 24.571428 149.428572q0 108.571429-46 198.571428T751.428571 799.428571q26.857143 40 53.428572 60.857143T864.571429 881.142857q34.857143 0 53.714285-21.428571t21.714286-48.857143z" fill="" p-id="3675"></path></svg>